
<svg xmlns="http://www.w3.org/2000/svg" style="display:none">
    <symbol id="logo-dice" viewBox="0 0 24 24" fill="none" stroke="currentColor" stroke-width="1.8" stroke-linecap="round" stroke-linejoin="round">
        <path d="M21 16V8a2 2 0 0 0-1-1.73l-7-4a2 2 0 0 0-2 0l-7 4A2 2 0 0 0 3 8v8a2 2 0 0 0 1 1.73l7 4a2 2 0 0 0 2 0l7-4a2 2 0 0 0 1-1.73Z"/>
        <path d="M3.3 7.2 12 12l8.7-4.8"/>
        <path d="M12 22V12"/>
        <circle cx="8.5" cy="9" r="0.6"/>
        <circle cx="15.5" cy="9" r="0.6"/>
        <circle cx="12" cy="15" r="0.6"/>
    </symbol>

    <symbol id="calendar" viewBox="0 0 24 24" fill="none" stroke="currentColor" stroke-width="1.8" stroke-linecap="round" stroke-linejoin="round">
        <rect x="3" y="4" width="18" height="18" rx="3"/>
        <path d="M16 2v4M8 2v4M3 10h18"/>
    </symbol>

    <symbol id="gamepad" viewBox="0 0 24 24" fill="none" stroke="currentColor" stroke-width="1.8" stroke-linecap="round" stroke-linejoin="round">
        <path d="M6 12h3M7.5 10.5v3"/>
        <path d="M15.5 11.5h0.01M17.5 13.5h0.01"/>
        <path d="M8.5 7h7A5.5 5.5 0 0 1 21 12.5v0A4.5 4.5 0 0 1 16.5 17H15l-2.5-2h-1L9 17H7.5A4.5 4.5 0 0 1 3 12.5v0A5.5 5.5 0 0 1 8.5 7Z"/>
    </symbol>

    <symbol id="dice" viewBox="0 0 24 24" fill="none" stroke="currentColor" stroke-width="1.8" stroke-linecap="round" stroke-linejoin="round">
        <rect x="3" y="3" width="18" height="18" rx="4"/>
        <circle cx="8.5" cy="8.5" r="0.7"/>
        <circle cx="15.5" cy="15.5" r="0.7"/>
        <circle cx="15.5" cy="8.5" r="0.7"/>
        <circle cx="8.5" cy="15.5" r="0.7"/>
        <circle cx="12" cy="12" r="0.7"/>
    </symbol>

    <symbol id="sword" viewBox="0 0 24 24" fill="none" stroke="currentColor" stroke-width="1.8" stroke-linecap="round" stroke-linejoin="round">
        <path d="M14.5 6.5 18 3l3 3-3.5 3.5"/>
        <path d="M13 8 8 13"/>
        <path d="M7 14 3 18l3 3 4-4"/>
        <path d="M8 13 11 16"/>
        <path d="M14 10 17 13"/>
    </symbol>

    <symbol id="chess" viewBox="0 0 24 24" fill="none" stroke="currentColor" stroke-width="1.8" stroke-linecap="round" stroke-linejoin="round">
        <path d="M8 21h8"/>
        <path d="M10 21v-4h4v4"/>
        <path d="M7 17h10l-1.5-5.5A3 3 0 0 0 12.6 9H11.4a3 3 0 0 0-2.9 2.5L7 17Z"/>
        <path d="M9 6h6"/>
        <path d="M10 6V3h4v3"/>
    </symbol>

    <symbol id="users" viewBox="0 0 24 24" fill="none" stroke="currentColor" stroke-width="1.8" stroke-linecap="round" stroke-linejoin="round">
        <path d="M16 11a4 4 0 1 0-8 0"/>
        <path d="M4 21a8 8 0 0 1 16 0"/>
        <path d="M20 21a7 7 0 0 0-4-6.3"/>
    </symbol>

    <symbol id="image" viewBox="0 0 24 24" fill="none" stroke="currentColor" stroke-width="1.8" stroke-linecap="round" stroke-linejoin="round">
        <rect x="3" y="4" width="18" height="16" rx="3"/>
        <path d="M8 11a1.5 1.5 0 1 0 0.01 0"/>
        <path d="M21 16l-6-6-5 5-2-2-5 5"/>
    </symbol>

    <symbol id="scales" viewBox="0 0 24 24" fill="none" stroke="currentColor" stroke-width="1.8" stroke-linecap="round" stroke-linejoin="round">
        <path d="M12 3v18"/>
        <path d="M5 7h14"/>
        <path d="M7 7l-3 6h6l-3-6Z"/>
        <path d="M17 7l-3 6h6l-3-6Z"/>
        <path d="M4 21h16"/>
    </symbol>

    <symbol id="mail" viewBox="0 0 24 24" fill="none" stroke="currentColor" stroke-width="1.8" stroke-linecap="round" stroke-linejoin="round">
        <rect x="3" y="5" width="18" height="14" rx="3"/>
        <path d="m4 7 8 6 8-6"/>
    </symbol>

    <symbol id="chat" viewBox="0 0 24 24" fill="none" stroke="currentColor" stroke-width="1.8" stroke-linecap="round" stroke-linejoin="round">
        <path d="M21 15a4 4 0 0 1-4 4H8l-5 3V7a4 4 0 0 1 4-4h10a4 4 0 0 1 4 4v8Z"/>
    </symbol>

    <symbol id="arrow-left" viewBox="0 0 24 24" fill="none" stroke="currentColor" stroke-width="1.8" stroke-linecap="round" stroke-linejoin="round">
        <path d="M15 18 9 12l6-6"/>
    </symbol>

    <symbol id="arrow-right" viewBox="0 0 24 24" fill="none" stroke="currentColor" stroke-width="1.8" stroke-linecap="round" stroke-linejoin="round">
        <path d="M9 18l6-6-6-6"/>
    </symbol>

    <symbol id="menu" viewBox="0 0 24 24" fill="none" stroke="currentColor" stroke-width="1.8" stroke-linecap="round" stroke-linejoin="round">
        <path d="M4 7h16M4 12h16M4 17h16"/>
    </symbol>

    <symbol id="chev-down" viewBox="0 0 24 24" fill="none" stroke="currentColor" stroke-width="1.8" stroke-linecap="round" stroke-linejoin="round">
        <path d="M6 9l6 6 6-6"/>
    </symbol>
</svg>